<svg width="10" height="10" viewBox="0 0 10 10" fill="none" xmlns="http://www.w3.org/2000/svg">
<path fill-rule="evenodd" clip-rule="evenodd" d="M4.0364 1.19995C2.8976 1.19995 1.9828 2.11435 1.9828 3.25355C1.9828 4.39275 2.8972 5.30755 4.0364 5.30755C5.176 5.30755 6.0904 4.39275 6.0904 3.25355C6.0904 2.11435 5.176 1.19995 4.0364 1.19995ZM4.0364 1.79995C4.8444 1.79995 5.4904 2.44595 5.4904 3.25355C5.4904 4.06155 4.8444 4.70755 4.0364 4.70755C3.2284 4.70755 2.5828 4.06155 2.5828 3.25355C2.5828 2.44555 3.2288 1.79995 4.0364 1.79995ZM8.2268 3.24635C8.2268 2.35275 7.502 1.62755 6.608 1.62755C6.4424 1.62755 6.308 1.76195 6.308 1.92755C6.308 2.09355 6.4424 2.22755 6.608 2.22755C7.1708 2.22755 7.6268 2.68395 7.6268 3.24635C7.6268 3.80915 7.1708 4.26515 6.608 4.26515C6.4424 4.26515 6.308 4.39955 6.308 4.56515C6.308 4.73115 6.4424 4.86515 6.608 4.86515C7.502 4.86515 8.2268 4.14075 8.2268 3.24635ZM7.9196 5.79755C7.698 5.74835 7.4672 5.71515 7.2348 5.69915C7.0696 5.68795 6.9268 5.81275 6.9152 5.97795C6.904 6.14355 7.0288 6.28675 7.194 6.29795C7.3964 6.31155 7.5976 6.34075 7.7964 6.38475C8.1072 6.44635 8.3128 6.54915 8.3684 6.66595C8.4104 6.75395 8.4104 6.85795 8.3684 6.94595C8.3132 7.06235 8.1084 7.16515 7.8008 7.22835C7.6384 7.26155 7.534 7.42035 7.5676 7.58235C7.6008 7.74475 7.7596 7.84955 7.9216 7.81595C8.3996 7.71755 8.7496 7.54235 8.9104 7.20395C9.0296 6.95195 9.0296 6.65995 8.9104 6.40795C8.7484 6.06835 8.3952 5.89195 7.9196 5.79755ZM1 7.40715C1 6.35755 2.1032 5.98235 4.0364 5.98235L4.1644 5.98315C6.0224 5.99915 7.0732 6.37435 7.0732 7.39915C7.0732 8.40235 6.066 8.78955 4.2892 8.82195L4.0364 8.82395C2.0988 8.82395 1.0004 8.45595 1.0004 7.40715H1ZM6.4732 7.39915C6.4732 6.86035 5.6452 6.58235 4.0364 6.58235C2.4296 6.58235 1.6004 6.86435 1.6004 7.40715C1.6004 7.94675 2.4276 8.22395 4.0364 8.22395C5.6436 8.22395 6.4732 7.94195 6.4732 7.39915Z" fill="#BDBDBD"/>
</svg>
